# xmcd CD database file
#
# Track frame offsets:
#	150
#	16575
#	28187
#	46350
#	59025
#	68675
#	86367
#	107017
#	120122
#	137155
#	151347
#	171657
#	197882
#	208597
#	225512
#	242467
#	256975
#	268375
#	281100
#
# Disc length: 3929 seconds
#
# Revision: 5
# Processed by: cddbd v1.5PL3 Copyright (c) Steve Scherf et al.
# Submitted via: CDex 1.50Beta3
#
DISCID=0d0f5713
DTITLE=Various Artist - Sound Sketch 1: Heart-warm memories
DYEAR=1900
DGENRE=
TTITLE0=マイヤーズ: カヴァティーナ
TTITLE1=マイヤーズ: ポートレート
TTITLE2=ヘンデル: メヌエット ト短調 組曲第9番変ロ長調より
TTITLE3=ビゼー: 組曲「子供の遊び」より 人形の子守歌
TTITLE4=ビゼー: 組曲「美しきパースの娘」より セレナード
TTITLE5=ビゼー: 組曲「アルルの女」第2組曲より 間奏曲
TTITLE6=ドヴォルザーク: 弦楽四重奏曲「糸杉」より I. 君に対する
TTITLE7=?. 悲しみは多くの人たちの心をとらえる
TTITLE8=?. いとしい君の手紙に見入って
TTITLE9=?. おお、ただひとりのいとしいひとよ
TTITLE10=ヴォーン・ウィリアムズ: 「グリーンスリーブズ」による
TTITLE11=ベートーヴェン: ピアノ・ソナタ第8番「悲愴」第2楽章
TTITLE12=ブラームス: 子守歌
TTITLE13=フリース: モーツァルトの子守歌
TTITLE14=マルティーニ: 愛の喜び
TTITLE15=アイルランド民謡: 庭の干草
TTITLE16=モロイ: 懐かしき愛の歌
TTITLE17=フォスター: 夢みる人
TTITLE18=アイルランド民謡: ロンドンデリーの歌
EXTD=
EXTT0=
EXTT1=
EXTT2=
EXTT3=
EXTT4=
EXTT5=
EXTT6=
EXTT7=
EXTT8=
EXTT9=
EXTT10=
EXTT11=
EXTT12=
EXTT13=
EXTT14=
EXTT15=
EXTT16=
EXTT17=
EXTT18=
PLAYORDER=
